<svg width="1024" height="390" viewBox="0 0 1024 390" fill="none" xmlns="http://www.w3.org/2000/svg">
<path d="M948.711 94.4234C948.711 84.9608 951.517 75.7107 956.774 67.8428C962.031 59.975 969.503 53.8427 978.246 50.2215C986.988 46.6004 996.608 45.6529 1005.89 47.499C1015.17 49.345 1023.69 53.9017 1030.39 60.5928C1037.08 67.2838 1041.63 75.8088 1043.48 85.0895C1045.33 94.3703 1044.38 103.99 1040.76 112.732C1037.14 121.475 1031 128.947 1023.14 134.204C1015.27 139.461 1006.02 142.267 996.555 142.267C983.869 142.256 971.707 137.211 962.737 128.241C953.767 119.271 948.723 107.109 948.711 94.4234ZM1112.93 94.4234C1112.93 71.3865 1106.09 48.8696 1093.28 29.7205C1080.47 10.5715 1062.27 -4.34953 1040.99 -13.1554C1019.7 -21.9612 996.278 -24.2563 973.686 -19.7503C951.095 -15.2443 930.346 -4.13976 914.066 12.159C897.786 28.4577 886.705 49.2184 882.224 71.8154C877.744 94.4124 880.065 117.831 888.895 139.108C897.725 160.386 912.666 178.567 931.83 191.352C950.993 204.137 973.518 210.952 996.555 210.934C1027.44 210.934 1057.06 198.666 1078.89 176.828C1100.73 154.991 1113 125.372 1113 94.4891" fill="#6CBD27"/>
<path d="M-58.3952 112.982L-36.5329 389.94L82.9527 139.259L-58.3952 112.982Z" fill="#B6D727"/>
</svg>
